<svg width="22" height="25" viewBox="0 0 22 25" fill="none" xmlns="http://www.w3.org/2000/svg">
<path d="M0.866847 1.3696C0.5714 1.71885 0.42157 2.16833 0.448378 2.625V22.3724C0.42157 22.829 0.5714 23.2785 0.866847 23.6278L0.931779 23.6927L12.0212 12.6322V12.3652L0.953429 1.30469L0.866847 1.3696Z" fill="#E1E2E5"/>
<path d="M0.867188 1.3696L0.953769 1.30469L12.0215 12.3652V12.6322L0.93212 23.6927L0.867188 23.6278" stroke="#3674E8" stroke-width="1.5"/>
<path d="M15.6886 16.3125L12.0234 12.6257V12.3587L15.7103 8.67188L15.7897 8.72234L20.1619 11.2043C21.4101 11.9258 21.4101 13.073 20.1619 13.78L15.7897 16.2693L15.6886 16.3125Z" fill="#E1E2E5"/>
<path d="M16.2115 8.72234L16.1322 8.67188L12.4453 12.3587V12.6257L16.1105 16.3125L16.2115 16.2693" stroke="#3674E8"/>
<path d="M15.7661 16.2663L12.0215 12.5L0.867188 23.6327C1.12016 23.8588 1.4447 23.9885 1.78381 23.999C2.12291 24.0096 2.45489 23.9003 2.72143 23.6904L15.7661 16.2735" fill="#E1E2E5"/>
<path d="M15.7661 8.72623L2.72143 1.30931C2.45489 1.09942 2.12291 0.990143 1.78381 1.0007C1.4447 1.01125 1.12016 1.14093 0.867188 1.367L12.0215 12.4996L15.7661 8.72623Z" fill="#E1E2E5"/>
<path opacity="0.2" d="M15.6849 16.1875L2.698 23.554C2.44021 23.7483 2.12616 23.8534 1.80334 23.8534C1.48051 23.8534 1.16647 23.7483 0.908682 23.554L0.84375 23.6189L0.908682 23.6838C1.16647 23.8781 1.48051 23.9832 1.80334 23.9832C2.12616 23.9832 2.44021 23.8781 2.698 23.6838L15.7427 16.2669L15.6849 16.1875Z" fill="#E1E2E5"/>
<path opacity="0.12" d="M0.866847 23.4977C0.5714 23.1484 0.42157 22.6989 0.448378 22.2422V22.3793C0.423445 22.8335 0.573161 23.2801 0.866847 23.6275L0.931779 23.5626L0.866847 23.4977Z" fill="#E1E2E5"/>
<path opacity="0.12" d="M20.1391 13.6545L15.6875 16.1869L15.7669 16.2663L20.1391 13.7843C20.3964 13.6741 20.6192 13.4968 20.7843 13.2708C20.9493 13.0448 21.0504 12.7786 21.0771 12.5C21.0224 12.7526 20.909 12.9887 20.746 13.1893C20.5831 13.3898 20.3752 13.5492 20.1391 13.6545Z" fill="#E1E2E5"/>
<path opacity="0.25" d="M2.71803 1.43864L20.135 11.3664C20.3718 11.4724 20.5803 11.6328 20.7433 11.8347C20.9063 12.0366 21.0193 12.2742 21.0729 12.528C21.0475 12.2482 20.9469 11.9804 20.7818 11.7531C20.6167 11.5257 20.3932 11.3473 20.135 11.2365L2.71803 1.33762C1.46984 0.616122 0.445312 1.21501 0.445312 2.65079V2.78061C0.474172 1.32319 1.46984 0.731572 2.71803 1.43864Z" fill="#E1E2E5"/>
</svg>
