<svg width="144" height="48" viewBox="0 0 144 48" fill="none" xmlns="http://www.w3.org/2000/svg">
<path d="M132.533 0.000155999H11.4737C11.0325 0.000155999 10.5965 0.000156 10.1564 0.00255599C9.78796 0.00495598 9.42249 0.011928 9.05054 0.0177959C8.24249 0.0272781 7.43635 0.0981672 6.63911 0.229847C5.84299 0.364394 5.07181 0.618053 4.35165 0.982245C3.63237 1.34952 2.97514 1.82675 2.40381 2.39663C1.82948 2.96491 1.35074 3.62176 0.98598 4.34193C0.620217 5.06067 0.366595 5.83086 0.233875 6.62591C0.0998928 7.41995 0.0277959 8.22315 0.018231 9.0283C0.00706378 9.39622 0.00588447 9.76536 0 10.1333V37.8704C0.00588447 38.243 0.00706378 38.6039 0.018231 38.9766C0.0277988 39.7817 0.0998957 40.5849 0.233875 41.3789C0.366228 42.1744 0.619865 42.945 0.98598 43.6641C1.35057 44.3819 1.82939 45.0361 2.40381 45.6012C2.97298 46.1736 3.63063 46.6512 4.35165 47.0156C5.0718 47.3808 5.8429 47.636 6.63911 47.7726C7.43648 47.9032 8.24254 47.9741 9.05054 47.9848C9.42249 47.9929 9.78796 47.9976 10.1564 47.9976C10.5965 48 11.0325 48 11.4737 48H132.533C132.965 48 133.405 48 133.837 47.9976C134.204 47.9976 134.58 47.9929 134.947 47.9848C135.753 47.9747 136.558 47.9038 137.353 47.7726C138.152 47.635 138.926 47.3799 139.65 47.0156C140.37 46.651 141.027 46.1734 141.596 45.6012C142.169 45.0339 142.648 44.3802 143.018 43.6641C143.381 42.9445 143.632 42.174 143.763 41.3789C143.897 40.5848 143.971 39.7818 143.986 38.9766C143.991 38.6039 143.991 38.243 143.991 37.8704C144 37.4344 144 37.0008 144 36.5578V11.4435C144 11.004 144 10.5681 143.991 10.1333C143.991 9.76536 143.991 9.39622 143.986 9.02825C143.971 8.22304 143.897 7.42001 143.763 6.62586C143.632 5.83128 143.381 5.06114 143.018 4.34189C142.275 2.89838 141.097 1.72338 139.65 0.982137C138.926 0.618835 138.152 0.365243 137.353 0.229739C136.558 0.097479 135.753 0.0265652 134.947 0.0176279C134.58 0.011772 134.204 0.00473998 133.837 0.00239999C133.405 0 132.965 0 132.533 0V0.000155999Z" fill="#585757"/>
<path d="M10.2367 46.9508C9.87005 46.9508 9.51226 46.9461 9.1485 46.9379C8.39493 46.9281 7.64312 46.8627 6.89923 46.7422C6.2056 46.6231 5.53366 46.4015 4.90556 46.0847C4.28323 45.7706 3.71561 45.3587 3.22446 44.8648C2.72619 44.3767 2.31136 43.8107 1.99641 43.189C1.67798 42.5633 1.45761 41.8927 1.34298 41.2004C1.21918 40.4565 1.1522 39.7044 1.14262 38.9504C1.13499 38.6973 1.125 37.8547 1.125 37.8547V10.134C1.125 10.134 1.13564 9.3043 1.14268 9.06054C1.15185 8.30776 1.21844 7.55676 1.34187 6.81406C1.45672 6.11988 1.67726 5.44728 1.99585 4.81954C2.30965 4.19831 2.72218 3.63181 3.21744 3.142C3.71215 2.64753 4.28158 2.23351 4.90497 1.91503C5.53162 1.59929 6.2023 1.37926 6.89453 1.26231C7.64085 1.14058 8.39527 1.07478 9.15146 1.06543L10.2373 1.05078H133.906L135.005 1.06602C135.754 1.0749 136.501 1.14012 137.241 1.26113C137.94 1.37955 138.618 1.60112 139.252 1.91855C140.5 2.56036 141.517 3.57578 142.158 4.82247C142.471 5.44587 142.688 6.11299 142.802 6.80117C142.927 7.54997 142.997 8.30687 143.011 9.06582C143.014 9.40566 143.014 9.7707 143.014 10.134C143.024 10.584 143.024 11.0123 143.024 11.4441V36.5585C143.024 36.9945 143.024 37.4199 143.014 37.8488C143.014 38.239 143.014 38.5965 143.01 38.9644C142.996 39.7098 142.927 40.4532 142.804 41.1886C142.692 41.8859 142.473 42.5618 142.154 43.1926C141.837 43.8075 141.425 44.3687 140.932 44.8555C140.441 45.352 139.872 45.7663 139.248 46.0825C138.616 46.4017 137.939 46.6241 137.241 46.7422C136.497 46.8634 135.745 46.9288 134.992 46.9379C134.639 46.9461 134.27 46.9508 133.912 46.9508L132.607 46.9532L10.2367 46.9508Z" fill="#303030"/>
<path d="M30.1577 23.8649C30.1711 22.8233 30.4485 21.8021 30.9642 20.8962C31.4798 19.9903 32.2168 19.2292 33.1066 18.6836C32.5413 17.8786 31.7956 17.216 30.9286 16.7486C30.0616 16.2812 29.0972 16.0219 28.1122 15.9911C26.0108 15.7712 23.9736 17.245 22.9028 17.245C21.8112 17.245 20.1625 16.013 18.3872 16.0494C17.2388 16.0864 16.1196 16.4194 15.1387 17.0159C14.1578 17.6125 13.3486 18.4523 12.7899 19.4534C10.3697 23.6318 12.1749 29.7727 14.4932 33.1502C15.6531 34.8041 17.0087 36.6515 18.7825 36.586C20.5182 36.5142 21.1665 35.4823 23.2617 35.4823C25.3374 35.4823 25.9456 36.586 27.7554 36.5444C29.6179 36.5142 30.7914 34.8831 31.9106 33.2136C32.744 32.0352 33.3853 30.7327 33.8107 29.3545C32.7287 28.8981 31.8052 28.1342 31.1556 27.158C30.506 26.1818 30.1589 25.0365 30.1577 23.8649Z" fill="white"/>
<path d="M26.7423 13.7699C27.7579 12.5542 28.2582 10.9917 28.137 9.41406C26.5855 9.57656 25.1524 10.316 24.1232 11.485C23.6199 12.0562 23.2345 12.7206 22.9889 13.4403C22.7433 14.16 22.6424 14.921 22.6919 15.6796C23.468 15.6876 24.2357 15.5199 24.9373 15.1891C25.6389 14.8583 26.2561 14.3731 26.7423 13.7699Z" fill="white"/>
<path d="M50.9843 32.5653H45.2883L43.9204 36.593H41.5078L46.903 21.6914H49.4096L54.8048 36.593H52.3511L50.9843 32.5653ZM45.8783 30.7067H50.3933L48.1675 24.1699H48.1052L45.8783 30.7067Z" fill="white"/>
<path d="M66.4581 31.1579C66.4581 34.534 64.646 36.7032 61.9113 36.7032C61.2186 36.7393 60.5297 36.5802 59.9234 36.244C59.3172 35.9079 58.8181 35.4082 58.4834 34.8024H58.4317V40.1836H56.1953V25.7251H58.36V27.5321H58.4011C58.7512 26.9291 59.2587 26.4321 59.8696 26.0939C60.4805 25.7557 61.1718 25.5889 61.8702 25.6114C64.6354 25.6114 66.4581 27.7911 66.4581 31.1579ZM64.1594 31.1579C64.1594 28.9583 63.0195 27.5122 61.2803 27.5122C59.5716 27.5122 58.4223 28.9887 58.4223 31.1579C58.4223 33.3469 59.5716 34.813 61.2803 34.813C63.0195 34.813 64.1594 33.3774 64.1594 31.1579H64.1594Z" fill="white"/>
<path d="M78.4508 31.1579C78.4508 34.534 76.6381 36.7032 73.9035 36.7032C73.2108 36.7393 72.5219 36.5802 71.9156 36.244C71.3094 35.9079 70.8103 35.4082 70.4756 34.8024H70.4238V40.1836H68.1875V25.7251H70.3522V27.5321H70.3933C70.7434 26.9291 71.2509 26.4321 71.8618 26.0939C72.4726 25.7557 73.164 25.5889 73.8624 25.6114C76.6276 25.6114 78.4508 27.7911 78.4508 31.1579ZM76.1516 31.1579C76.1516 28.9583 75.0117 27.5122 73.2725 27.5122C71.5638 27.5122 70.4145 28.9887 70.4145 31.1579C70.4145 33.3469 71.5638 34.813 73.2725 34.813C75.0117 34.813 76.1516 33.3774 76.1516 31.1579Z" fill="white"/>
<path d="M86.3752 32.4395C86.5409 33.9173 87.9805 34.8875 89.9477 34.8875C91.8327 34.8875 93.1888 33.9172 93.1888 32.5848C93.1888 31.4281 92.3709 30.7356 90.4342 30.2609L88.4976 29.7957C85.7536 29.1348 84.4797 27.8551 84.4797 25.7785C84.4797 23.2074 86.7266 21.4414 89.916 21.4414C93.0748 21.4414 95.2395 23.2074 95.3124 25.7785H93.0548C92.9197 24.2914 91.6869 23.3938 89.8854 23.3938C88.0839 23.3938 86.8511 24.302 86.8511 25.6238C86.8511 26.6774 87.6385 27.2973 89.5646 27.7718L91.211 28.175C94.277 28.898 95.5497 30.1262 95.5497 32.3058C95.5497 35.0937 93.3239 36.8398 89.782 36.8398C86.468 36.8398 84.2305 35.1347 84.0859 32.4394L86.3752 32.4395Z" fill="white"/>
<path d="M100.378 23.1523V25.7234H102.45V27.4895H100.378V33.4789C100.378 34.4094 100.793 34.843 101.703 34.843C101.949 34.8387 102.195 34.8215 102.439 34.7914V36.5468C102.03 36.6231 101.613 36.6577 101.197 36.65C98.9912 36.65 98.131 35.8238 98.131 33.7168V27.4895H96.5469V25.7234H98.131V23.1523H100.378Z" fill="white"/>
<path d="M103.641 31.1562C103.641 27.7379 105.66 25.5898 108.808 25.5898C111.967 25.5898 113.976 27.7378 113.976 31.1562C113.976 34.584 111.977 36.7227 108.808 36.7227C105.64 36.7227 103.641 34.584 103.641 31.1562ZM111.698 31.1562C111.698 28.8113 110.62 27.4273 108.808 27.4273C106.996 27.4273 105.918 28.8219 105.918 31.1562C105.918 33.5105 106.996 34.884 108.808 34.884C110.62 34.884 111.698 33.5105 111.698 31.1562H111.698Z" fill="white"/>
<path d="M115.828 25.725H117.961V27.5742H118.013C118.157 26.9966 118.496 26.4862 118.974 26.1287C119.451 25.7713 120.037 25.5886 120.633 25.6113C120.891 25.6104 121.148 25.6383 121.4 25.6945V27.7804C121.074 27.6813 120.735 27.6357 120.395 27.6456C120.07 27.6325 119.746 27.6896 119.445 27.8131C119.145 27.9366 118.874 28.1234 118.653 28.3609C118.432 28.5984 118.264 28.8808 118.163 29.1888C118.061 29.4968 118.028 29.8231 118.064 30.1452V36.5894H115.828L115.828 25.725Z" fill="white"/>
<path d="M131.703 33.3969C131.402 35.3691 129.476 36.7227 127.012 36.7227C123.842 36.7227 121.875 34.6051 121.875 31.2078C121.875 27.8 123.853 25.5898 126.918 25.5898C129.932 25.5898 131.827 27.6547 131.827 30.9488V31.7129H124.132V31.8477C124.097 32.2475 124.147 32.6503 124.28 33.0293C124.412 33.4083 124.624 33.7548 124.901 34.0459C125.179 34.337 125.515 34.5659 125.888 34.7174C126.26 34.869 126.661 34.9398 127.063 34.925C127.592 34.9744 128.122 34.8523 128.575 34.577C129.029 34.3017 129.381 33.8878 129.579 33.3969L131.703 33.3969ZM124.143 30.1543H129.59C129.61 29.7948 129.555 29.435 129.429 29.0976C129.303 28.7601 129.109 28.4523 128.858 28.1933C128.607 27.9344 128.305 27.73 127.971 27.593C127.637 27.4559 127.279 27.3891 126.918 27.3969C126.553 27.3947 126.192 27.4645 125.855 27.6022C125.518 27.7399 125.212 27.9427 124.954 28.1991C124.696 28.4555 124.492 28.7602 124.353 29.0958C124.213 29.4314 124.142 29.7911 124.143 30.1543V30.1543Z" fill="white"/>
<path d="M45.5936 10.4808C46.0624 10.4472 46.5329 10.5179 46.9711 10.6876C47.4092 10.8573 47.8042 11.1219 48.1274 11.4622C48.4506 11.8026 48.694 12.2102 48.8401 12.6557C48.9862 13.1013 49.0313 13.5736 48.9722 14.0386C48.9722 16.3261 47.7324 17.641 45.5936 17.641H43V10.4808H45.5936ZM44.1152 16.6284H45.469C45.804 16.6484 46.1393 16.5936 46.4504 16.468C46.7615 16.3425 47.0407 16.1494 47.2675 15.9027C47.4943 15.656 47.6631 15.362 47.7617 15.0421C47.8602 14.7221 47.8859 14.3843 47.837 14.0532C47.8823 13.7234 47.854 13.3877 47.754 13.0701C47.654 12.7525 47.4847 12.4609 47.2584 12.2161C47.0321 11.9714 46.7543 11.7797 46.445 11.6546C46.1356 11.5295 45.8023 11.4742 45.469 11.4926H44.1152V16.6284Z" fill="white"/>
<path d="M50.2308 14.9326C50.1968 14.5775 50.2375 14.2192 50.3504 13.8807C50.4634 13.5422 50.646 13.231 50.8866 12.967C51.1272 12.703 51.4205 12.4921 51.7476 12.3478C52.0747 12.2035 52.4285 12.1289 52.7862 12.1289C53.144 12.1289 53.4977 12.2035 53.8249 12.3478C54.152 12.4921 54.4453 12.703 54.6859 12.967C54.9265 13.231 55.1091 13.5422 55.222 13.8807C55.335 14.2192 55.3757 14.5775 55.3416 14.9326C55.3763 15.288 55.3361 15.6468 55.2235 15.9858C55.1108 16.3249 54.9283 16.6366 54.6877 16.9011C54.447 17.1656 54.1535 17.377 53.826 17.5216C53.4986 17.6663 53.1444 17.741 52.7862 17.741C52.4281 17.741 52.0739 17.6663 51.7464 17.5216C51.419 17.377 51.1255 17.1656 50.8848 16.9011C50.6441 16.6366 50.4616 16.3249 50.349 15.9858C50.2364 15.6468 50.1961 15.288 50.2308 14.9326ZM54.2417 14.9326C54.2417 13.7613 53.714 13.0763 52.788 13.0763C51.8584 13.0763 51.3355 13.7613 51.3355 14.9326C51.3355 16.1132 51.8585 16.7929 52.788 16.7929C53.714 16.7929 54.2417 16.1085 54.2417 14.9326H54.2417Z" fill="white"/>
<path d="M62.1309 17.6379H61.0216L59.9016 13.6582H59.817L58.7018 17.6379H57.603L56.1094 12.2344H57.1941L58.1647 16.3576H58.2447L59.3587 12.2344H60.3846L61.4987 16.3576H61.5833L62.5493 12.2344H63.6187L62.1309 17.6379Z" fill="white"/>
<path d="M64.875 12.2346H65.9044V13.093H65.9844C66.1199 12.7847 66.3486 12.5263 66.6384 12.3537C66.9283 12.1811 67.2649 12.103 67.6014 12.1303C67.865 12.1106 68.1298 12.1502 68.376 12.2463C68.6222 12.3424 68.8436 12.4925 69.0237 12.6856C69.2038 12.8786 69.3381 13.1095 69.4165 13.3613C69.495 13.6131 69.5156 13.8793 69.4769 14.1401V17.6381H68.4076V14.4079C68.4076 13.5395 68.0292 13.1077 67.2383 13.1077C67.0593 13.0994 66.8806 13.1297 66.7144 13.1967C66.5483 13.2637 66.3986 13.3658 66.2758 13.4958C66.1529 13.6259 66.0596 13.7809 66.0024 13.9503C65.9452 14.1196 65.9254 14.2993 65.9444 14.477V17.6381H64.875L64.875 12.2346Z" fill="white"/>
<path d="M71.1875 10.125H72.2569V17.6379H71.1875V10.125Z" fill="white"/>
<path d="M73.7464 14.9327C73.7124 14.5775 73.7532 14.2192 73.8661 13.8807C73.9791 13.5422 74.1617 13.231 74.4023 12.967C74.643 12.7031 74.9363 12.4921 75.2634 12.3478C75.5906 12.2035 75.9444 12.1289 76.3021 12.1289C76.6599 12.1289 77.0137 12.2035 77.3408 12.3478C77.668 12.4921 77.9613 12.7031 78.2019 12.967C78.4425 13.231 78.6252 13.5422 78.7381 13.8807C78.8511 14.2192 78.8919 14.5775 78.8578 14.9327C78.8925 15.2881 78.8522 15.6469 78.7395 15.986C78.6269 16.325 78.4443 16.6368 78.2036 16.9012C77.963 17.1657 77.6694 17.3771 77.342 17.5217C77.0145 17.6664 76.6603 17.7411 76.3021 17.7411C75.944 17.7411 75.5898 17.6664 75.2623 17.5217C74.9348 17.3771 74.6413 17.1657 74.4006 16.9012C74.1599 16.6368 73.9774 16.325 73.8647 15.986C73.7521 15.6469 73.7118 15.2881 73.7464 14.9327ZM77.7573 14.9327C77.7573 13.7614 77.2296 13.0764 76.3036 13.0764C75.374 13.0764 74.8511 13.7614 74.8511 14.9327C74.8511 16.1133 75.3741 16.793 76.3036 16.793C77.2296 16.793 77.7573 16.1086 77.7573 14.9327H77.7573Z" fill="white"/>
<path d="M79.9844 16.1086C79.9844 15.1359 80.7106 14.5752 81.9998 14.4955L83.4676 14.4111V13.9447C83.4676 13.374 83.0892 13.0518 82.3582 13.0518C81.7612 13.0518 81.3476 13.2703 81.2289 13.6523H80.1936C80.3028 12.7242 81.1783 12.1289 82.4076 12.1289C83.7661 12.1289 84.5323 12.8033 84.5323 13.9447V17.6367H83.5028V16.8773H83.4182C83.2465 17.1497 83.0053 17.3718 82.7194 17.5208C82.4334 17.6699 82.1129 17.7406 81.7906 17.7257C81.5631 17.7493 81.3332 17.7251 81.1157 17.6547C80.8982 17.5843 80.6979 17.4691 80.5277 17.3168C80.3575 17.1644 80.2212 16.9782 80.1277 16.7701C80.0341 16.562 79.9853 16.3366 79.9844 16.1086ZM83.4676 15.6469V15.1951L82.1443 15.2795C81.3981 15.3293 81.0596 15.5824 81.0596 16.0588C81.0596 16.5451 81.4827 16.8281 82.0645 16.8281C82.2349 16.8453 82.4071 16.8282 82.5707 16.7776C82.7344 16.7271 82.8862 16.6443 83.0171 16.5341C83.148 16.4239 83.2554 16.2885 83.3328 16.1361C83.4101 15.9837 83.456 15.8173 83.4676 15.6469Z" fill="white"/>
<path d="M85.9375 14.9338C85.9375 13.2264 86.8177 12.1447 88.1868 12.1447C88.5254 12.1292 88.8615 12.2101 89.1558 12.3779C89.45 12.5458 89.6903 12.7937 89.8484 13.0927H89.9284V10.125H90.9978V17.6379H89.973V16.7842H89.8884C89.718 17.0812 89.4694 17.326 89.1694 17.4922C88.8695 17.6584 88.5297 17.7395 88.1868 17.7269C86.8083 17.727 85.9375 16.6453 85.9375 14.9338ZM87.0422 14.9338C87.0422 16.0799 87.584 16.7696 88.49 16.7696C89.3913 16.7696 89.9484 16.07 89.9484 14.9385C89.9484 13.8123 89.3855 13.1028 88.49 13.1028C87.5898 13.1028 87.0422 13.7971 87.0422 14.9338H87.0422Z" fill="white"/>
<path d="M95.4183 14.9326C95.3843 14.5775 95.425 14.2192 95.5379 13.8807C95.6509 13.5422 95.8335 13.231 96.0741 12.967C96.3147 12.703 96.608 12.4921 96.9351 12.3478C97.2622 12.2035 97.616 12.1289 97.9737 12.1289C98.3315 12.1289 98.6852 12.2035 99.0124 12.3478C99.3395 12.4921 99.6328 12.703 99.8734 12.967C100.114 13.231 100.297 13.5422 100.41 13.8807C100.522 14.2192 100.563 14.5775 100.529 14.9326C100.564 15.288 100.524 15.6468 100.411 15.9858C100.298 16.3249 100.116 16.6366 99.8752 16.9011C99.6345 17.1656 99.341 17.377 99.0135 17.5216C98.6861 17.6663 98.3319 17.741 97.9737 17.741C97.6156 17.741 97.2614 17.6663 96.9339 17.5216C96.6065 17.377 96.313 17.1656 96.0723 16.9011C95.8316 16.6366 95.6491 16.3249 95.5365 15.9858C95.4239 15.6468 95.3836 15.288 95.4183 14.9326ZM99.4292 14.9326C99.4292 13.7613 98.9015 13.0763 97.9755 13.0763C97.0459 13.0763 96.523 13.7613 96.523 14.9326C96.523 16.1132 97.046 16.7929 97.9755 16.7929C98.9015 16.7929 99.4292 16.1085 99.4292 14.9326Z" fill="white"/>
<path d="M101.961 12.2346H102.99V13.093H103.07C103.206 12.7847 103.435 12.5263 103.724 12.3537C104.014 12.1811 104.351 12.103 104.687 12.1303C104.951 12.1106 105.216 12.1502 105.462 12.2463C105.708 12.3424 105.93 12.4925 106.11 12.6856C106.29 12.8786 106.424 13.1095 106.502 13.3613C106.581 13.6131 106.602 13.8793 106.563 14.1401V17.6381H105.493V14.4079C105.493 13.5395 105.115 13.1077 104.324 13.1077C104.145 13.0994 103.966 13.1297 103.8 13.1967C103.634 13.2637 103.485 13.3658 103.362 13.4958C103.239 13.6259 103.146 13.7809 103.088 13.9503C103.031 14.1196 103.011 14.2993 103.03 14.477V17.6381H101.961V12.2346Z" fill="white"/>
<path d="M112.603 10.8906V12.2605H113.777V13.1588H112.603V15.9373C112.603 16.5033 112.837 16.7512 113.369 16.7512C113.505 16.7507 113.641 16.7425 113.777 16.7266V17.6148C113.585 17.6491 113.39 17.6673 113.195 17.6693C112.006 17.6693 111.532 17.2521 111.532 16.2103V13.1587H110.672V12.2605H111.532V10.8906H112.603Z" fill="white"/>
<path d="M115.242 10.125H116.302V13.1027H116.387C116.529 12.7916 116.764 12.5316 117.06 12.3584C117.355 12.1852 117.697 12.1071 118.039 12.1348C118.301 12.1205 118.564 12.1642 118.807 12.2627C119.05 12.3611 119.269 12.5119 119.447 12.7043C119.625 12.8967 119.759 13.126 119.838 13.3757C119.917 13.6255 119.94 13.8896 119.905 14.1492V17.6379H118.835V14.4123C118.835 13.5492 118.432 13.1121 117.676 13.1121C117.492 13.0971 117.307 13.1223 117.134 13.1859C116.961 13.2496 116.804 13.3502 116.674 13.4807C116.544 13.6112 116.445 13.7684 116.382 13.9413C116.319 14.1143 116.295 14.2988 116.312 14.482V17.6379H115.242L115.242 10.125Z" fill="white"/>
<path d="M126.14 16.1778C125.995 16.6717 125.68 17.0988 125.25 17.3846C124.821 17.6704 124.305 17.7966 123.792 17.7411C123.435 17.7505 123.08 17.6823 122.752 17.5413C122.424 17.4002 122.131 17.1897 121.893 16.9244C121.655 16.659 121.477 16.3451 121.373 16.0046C121.269 15.664 121.24 15.3048 121.289 14.952C121.241 14.5982 121.27 14.2383 121.375 13.8967C121.479 13.5551 121.655 13.2397 121.892 12.972C122.129 12.7044 122.421 12.4905 122.748 12.3451C123.075 12.1996 123.429 12.126 123.787 12.129C125.295 12.129 126.204 13.1562 126.204 14.853V15.2251H122.378V15.2849C122.361 15.4832 122.386 15.6828 122.451 15.8709C122.517 16.059 122.62 16.2314 122.756 16.3772C122.892 16.5229 123.057 16.6387 123.24 16.7172C123.424 16.7957 123.622 16.8351 123.821 16.8329C124.077 16.8635 124.336 16.8176 124.566 16.7009C124.795 16.5843 124.985 16.4022 125.11 16.1778L126.14 16.1778ZM122.378 14.4364H125.115C125.129 14.2551 125.104 14.0729 125.042 13.9016C124.981 13.7304 124.885 13.5738 124.759 13.442C124.633 13.3101 124.481 13.206 124.313 13.1362C124.145 13.0664 123.964 13.0324 123.781 13.0366C123.596 13.0343 123.413 13.0689 123.241 13.1385C123.07 13.208 122.914 13.311 122.784 13.4415C122.653 13.5719 122.55 13.7272 122.48 13.8981C122.41 14.0689 122.376 14.252 122.378 14.4364H122.378Z" fill="white"/>
</svg>
