<svg width="20" height="24" viewBox="0 0 20 24" fill="none" xmlns="http://www.w3.org/2000/svg">
<path d="M16.3029 12.3607C16.3156 11.4692 16.5531 10.5953 16.9933 9.81995C17.4335 9.04458 18.0622 8.39274 18.8212 7.92488C18.3389 7.23622 17.7022 6.66998 16.962 6.2713C16.2218 5.87262 15.3986 5.65252 14.5582 5.62876C12.7641 5.43948 11.0276 6.69866 10.1142 6.69866C9.20066 6.69866 7.77693 5.64527 6.25444 5.67819C5.27433 5.70746 4.31874 5.99152 3.48178 6.50236C2.64481 7.0132 1.95533 7.73323 1.48122 8.59153C-0.584436 12.1632 0.95452 17.422 2.93787 20.3106C3.92544 21.7261 5.0776 23.3062 6.59186 23.2486C8.10612 23.1909 8.63283 22.3021 10.4187 22.3021C12.2045 22.3021 12.7065 23.2486 14.2537 23.2157C15.8009 23.1828 16.8461 21.7919 17.8007 20.3599C18.517 19.3548 19.0723 18.2442 19.4466 17.068C18.5165 16.6814 17.7216 16.0281 17.1621 15.1903C16.6027 14.3526 16.3037 13.368 16.3029 12.3607Z" fill="#E1E2E5"/>
<path d="M13.3809 3.72807C14.2466 2.68692 14.6744 1.35035 14.5742 0C13.2514 0.139303 12.0294 0.770908 11.1506 1.7694C10.7199 2.25718 10.3898 2.82528 10.1794 3.44106C9.96893 4.05684 9.88229 4.70815 9.92442 5.35754C10.5864 5.36607 11.2417 5.22375 11.8406 4.94143C12.4395 4.65911 12.9662 4.2442 13.3809 3.72807Z" fill="#E1E2E5"/>
</svg>
