<svg width="189" height="43" viewBox="0 0 189 43" fill="none" xmlns="http://www.w3.org/2000/svg">
<rect x="0.382812" width="188" height="43" rx="10" fill="url(#paint0_linear_3107_9239)"/>
<path d="M27.6799 20.836V22.69H31.2079V25.282C30.3079 25.984 29.2819 26.308 28.0219 26.308C25.3399 26.308 23.6119 24.508 23.6119 21.7C23.6119 18.946 25.4659 17.092 28.1479 17.092C29.3719 17.092 30.6499 17.596 31.4959 18.442L32.8459 17.092C31.6039 15.814 29.9659 15.148 28.1659 15.148C24.2239 15.148 21.5059 17.848 21.5059 21.7C21.5059 25.66 24.0979 28.252 28.0219 28.252C30.0919 28.252 31.7479 27.586 33.1519 26.182V20.836H27.6799ZM39.3644 18.928C36.6104 18.928 34.7564 20.8 34.7564 23.554C34.7564 26.398 36.6464 28.252 39.5804 28.252C41.1104 28.252 42.5324 27.658 43.4144 26.704L42.1904 25.516C41.6504 26.074 40.6424 26.434 39.6344 26.434C38.0684 26.434 36.9884 25.606 36.8264 24.31H43.9364C44.2244 20.98 42.4964 18.928 39.3644 18.928ZM39.4184 20.674C40.8944 20.674 41.8664 21.484 42.0104 22.744H36.8444C37.0964 21.43 38.0144 20.674 39.4184 20.674ZM51.1018 26.074C50.7598 26.236 50.3458 26.344 49.9858 26.344C49.1578 26.344 48.7438 25.84 48.7438 24.94V20.818H51.2998V19.108H48.7438V16.57L46.7458 16.786V19.108H45.0718V20.818H46.7458V24.94C46.7458 27.064 47.8258 28.126 49.6618 28.126C50.3998 28.126 50.9758 28 51.6598 27.694L51.1018 26.074ZM66.4717 15.4H56.1937V17.344H60.2797V28H62.3857V17.344H66.4717V15.4ZM72.7842 19.108V23.788C72.7842 25.282 71.7942 26.362 70.3182 26.362C69.0222 26.362 68.2302 25.462 68.2302 23.896V19.108H66.2142V24.022C66.2142 26.56 67.6902 28.18 69.9582 28.18C71.1822 28.18 72.2262 27.73 72.9822 26.848L73.0002 28H74.8002V19.108H72.7842ZM81.7742 18.928C80.6582 18.928 79.7762 19.396 79.0742 20.476L79.0562 19.108H77.2562V28H79.2722V23.662C79.2722 21.916 80.1902 20.854 81.6302 20.854C82.1702 20.854 82.6202 20.998 83.1242 21.34L84.0242 19.702C83.4842 19.216 82.6382 18.928 81.7742 18.928ZM89.5927 16.894C90.0787 16.894 90.4387 17.038 90.9247 17.344L91.6987 15.922C90.9607 15.4 90.2407 15.166 89.4307 15.166C87.6127 15.166 86.1727 16.3 86.1727 18.568V19.108H84.4987V20.836H86.1727V28H88.1887V20.836H90.8347V19.108H88.1887V18.568C88.1887 17.398 88.7647 16.894 89.5927 16.894ZM105.249 15.4H94.971V17.344H99.057V28H101.163V17.344H105.249V15.4ZM109.1 28.198C111.98 28.198 113.834 26.218 113.834 23.554C113.834 20.89 111.98 18.91 109.1 18.91C106.202 18.91 104.348 20.89 104.348 23.554C104.348 26.218 106.202 28.198 109.1 28.198ZM109.1 26.362C107.426 26.362 106.364 25.102 106.364 23.554C106.364 22.006 107.426 20.746 109.1 20.746C110.756 20.746 111.818 22.006 111.818 23.554C111.818 25.102 110.756 26.362 109.1 26.362ZM126.67 19.108L125.698 22.384L124.708 25.732L122.44 19.108H120.73L118.444 25.696L117.49 22.384L116.482 19.108H114.34L117.31 28H119.47L120.316 25.462L121.594 21.898L122.872 25.462L123.718 28H125.86L128.812 19.108H126.67ZM135.168 18.928C133.926 18.928 132.846 19.378 132.09 20.278L132.072 19.108H130.272V28H132.288V23.32C132.288 21.826 133.314 20.746 134.79 20.746C136.14 20.746 136.95 21.646 136.95 23.212V28H138.966V23.086C138.966 20.548 137.454 18.928 135.168 18.928Z" fill="#E1E2E5"/>
<path d="M165.052 22L151.719 22M165.052 22L159.719 27M165.052 22L159.719 17" stroke="#E1E2E6" stroke-width="1.8" stroke-linecap="round" stroke-linejoin="round"/>
<defs>
<linearGradient id="paint0_linear_3107_9239" x1="94.3828" y1="0" x2="94.3828" y2="43" gradientUnits="userSpaceOnUse">
<stop stop-color="#3D3E41"/>
<stop offset="1" stop-color="#272B31"/>
</linearGradient>
</defs>
</svg>
