<svg width="16" height="18" viewBox="0 0 16 18" fill="none" xmlns="http://www.w3.org/2000/svg">
<path d="M1.17215 1.25609C0.966621 1.49905 0.862389 1.81174 0.881039 2.12943V15.867C0.862389 16.1847 0.966621 16.4973 1.17215 16.7403L1.21732 16.7855L8.93183 9.09105V8.90534L1.23238 1.21094L1.17215 1.25609Z" fill="#E1E2E5"/>
<path d="M1.17188 1.25609L1.23211 1.21094L8.93155 8.90534V9.09105L1.21705 16.7855L1.17188 16.7403" stroke="#306FE4" stroke-width="1.5"/>
<path d="M11.4833 11.6512L8.93359 9.08645V8.90074L11.4984 6.33594L11.5536 6.37104L14.5952 8.09768C15.4636 8.5996 15.4636 9.39763 14.5952 9.88951L11.5536 11.6212L11.4833 11.6512Z" fill="#E1E2E5"/>
<path d="M11.8427 6.37104L11.7875 6.33594L9.22266 8.90074V9.08645L11.7724 11.6512L11.8427 11.6212" stroke="#306FE4"/>
<path d="M11.5365 11.6201L8.93155 9L1.17188 16.7446C1.34786 16.9019 1.57363 16.9921 1.80953 16.9995C2.04544 17.0068 2.27638 16.9308 2.46181 16.7848L11.5365 11.6251" fill="#E1E2E5"/>
<path d="M11.5365 6.37486L2.46181 1.21517C2.27638 1.06916 2.04544 0.993143 1.80953 1.00049C1.57363 1.00783 1.34786 1.09804 1.17188 1.25531L8.93155 8.99989L11.5365 6.37486Z" fill="#E1E2E5"/>
<path opacity="0.2" d="M11.4846 11.5625L2.45009 16.6871C2.27076 16.8223 2.05228 16.8954 1.82771 16.8954C1.60313 16.8954 1.38466 16.8223 1.20533 16.6871L1.16016 16.7322L1.20533 16.7774C1.38466 16.9126 1.60313 16.9857 1.82771 16.9857C2.05228 16.9857 2.27076 16.9126 2.45009 16.7774L11.5248 11.6177L11.4846 11.5625Z" fill="#E1E2E5"/>
<path opacity="0.12" d="M1.17215 16.6546C0.966621 16.4117 0.862389 16.0989 0.881039 15.7812V15.8766C0.863694 16.1926 0.967846 16.5033 1.17215 16.745L1.21732 16.6998L1.17215 16.6546Z" fill="#E1E2E5"/>
<path opacity="0.12" d="M14.5773 9.80312L11.4805 11.5649L11.5357 11.6201L14.5773 9.89343C14.7563 9.81681 14.9113 9.69343 15.0261 9.53623C15.1409 9.37903 15.2113 9.19378 15.2298 9C15.1918 9.1757 15.1129 9.33997 14.9995 9.4795C14.8861 9.61902 14.7415 9.72992 14.5773 9.80312Z" fill="#E1E2E5"/>
<path opacity="0.25" d="M2.45995 1.30684L14.5763 8.21326C14.7411 8.28695 14.8861 8.39859 14.9995 8.53903C15.1129 8.67948 15.1915 8.84474 15.2288 9.02135C15.2111 8.82668 15.1412 8.64039 15.0263 8.48224C14.9114 8.32408 14.7559 8.19992 14.5763 8.12289L2.45995 1.23657C1.59163 0.734648 0.878906 1.15128 0.878906 2.1501V2.24041C0.898983 1.22653 1.59163 0.814962 2.45995 1.30684Z" fill="#E1E2E5"/>
</svg>
