<svg width="170" height="51" viewBox="0 0 170 51" fill="none" xmlns="http://www.w3.org/2000/svg">
<path d="M158.844 1.03516H10.5773C5.86246 1.03516 2.03906 4.85184 2.03906 9.56151V41.3733C2.03906 46.083 5.86246 49.8996 10.5773 49.8996H158.844C163.559 49.8996 167.382 46.083 167.382 41.3733V9.56151C167.382 4.85184 163.559 1.03516 158.844 1.03516Z" fill="#303030" stroke="#585757"/>
<path d="M60.1097 13.5295C60.1097 14.5573 59.8034 15.3771 59.1907 15.9766C58.5045 16.6985 57.5978 17.0655 56.4949 17.0655C55.4289 17.0655 54.5344 16.6985 53.7869 15.9644C53.0395 15.2302 52.6719 14.3126 52.6719 13.2359C52.6719 12.1469 53.0395 11.2415 53.7869 10.5074C54.5344 9.7733 55.4289 9.40625 56.4949 9.40625C57.0218 9.40625 57.5242 9.50413 58.0021 9.71213C58.48 9.92013 58.8599 10.1893 59.1539 10.5319L58.5045 11.1804C58.0144 10.6053 57.3527 10.3116 56.4949 10.3116C55.723 10.3116 55.049 10.5808 54.4854 11.1314C53.9217 11.6698 53.6399 12.3794 53.6399 13.2481C53.6399 14.1168 53.9217 14.8265 54.4854 15.3648C55.049 15.9032 55.723 16.1846 56.4949 16.1846C57.3159 16.1846 58.0021 15.9154 58.5535 15.3648C58.9089 15.01 59.1172 14.5084 59.1662 13.8721H56.4949V12.9912H60.0607C60.0852 13.1747 60.1097 13.3582 60.1097 13.5295Z" fill="white" stroke="white" stroke-width="0.2" stroke-miterlimit="10"/>
<path d="M65.7574 10.4718H62.4123V12.7965H65.4266V13.6775H62.4123V16.0022H65.7574V16.9076H61.4688V9.56641H65.7574V10.4718Z" fill="white" stroke="white" stroke-width="0.2" stroke-miterlimit="10"/>
<path d="M69.7365 16.9076H68.7929V10.4718H66.7344V9.56641H71.7828V10.4718H69.7242V16.9076H69.7365Z" fill="white" stroke="white" stroke-width="0.2" stroke-miterlimit="10"/>
<path d="M75.4531 16.9076V9.56641H76.3966V16.9076H75.4531Z" fill="white" stroke="white" stroke-width="0.2" stroke-miterlimit="10"/>
<path d="M80.5802 16.9076H79.6367V10.4718H77.5781V9.56641H82.6265V10.4718H80.568V16.9076H80.5802Z" fill="white" stroke="white" stroke-width="0.2" stroke-miterlimit="10"/>
<path d="M92.1964 15.9521C91.4734 16.6985 90.5789 17.0655 89.5006 17.0655C88.4223 17.0655 87.5278 16.6985 86.8049 15.9521C86.0819 15.2058 85.7266 14.3004 85.7266 13.2359C85.7266 12.1714 86.0819 11.2538 86.8049 10.5196C87.5278 9.7733 88.4223 9.40625 89.5006 9.40625C90.5667 9.40625 91.4612 9.7733 92.1964 10.5196C92.9193 11.266 93.2869 12.1714 93.2869 13.2359C93.2747 14.3126 92.9193 15.218 92.1964 15.9521ZM87.5033 15.3404C88.0425 15.891 88.7164 16.1601 89.5006 16.1601C90.2848 16.1601 90.9588 15.891 91.4979 15.3404C92.0371 14.7898 92.3189 14.0924 92.3189 13.2359C92.3189 12.3794 92.0493 11.682 91.4979 11.1314C90.9588 10.5808 90.2848 10.3116 89.5006 10.3116C88.7164 10.3116 88.0425 10.5808 87.5033 11.1314C86.9642 11.682 86.6823 12.3794 86.6823 13.2359C86.6823 14.0924 86.9642 14.7898 87.5033 15.3404Z" fill="white" stroke="white" stroke-width="0.2" stroke-miterlimit="10"/>
<path d="M94.6094 16.9076V9.56641H95.7612L99.3392 15.2803H99.376L99.3392 13.861V9.56641H100.283V16.9076H99.3024L95.5651 10.9245H95.5284L95.5651 12.3438V16.9076H94.6094Z" fill="white" stroke="white" stroke-width="0.2" stroke-miterlimit="10"/>
<path d="M85.488 27.61C82.6085 27.61 80.2558 29.8001 80.2558 32.81C80.2558 35.8076 82.6085 38.01 85.488 38.01C88.3676 38.01 90.7202 35.8076 90.7202 32.81C90.7202 29.8001 88.3676 27.61 85.488 27.61ZM85.488 35.9667C83.9073 35.9667 82.5472 34.6697 82.5472 32.81C82.5472 30.938 83.9073 29.6533 85.488 29.6533C87.0687 29.6533 88.4288 30.938 88.4288 32.81C88.4288 34.6697 87.0565 35.9667 85.488 35.9667ZM74.0678 27.61C71.1883 27.61 68.8356 29.8001 68.8356 32.81C68.8356 35.8076 71.1883 38.01 74.0678 38.01C76.9474 38.01 79.3 35.8076 79.3 32.81C79.3 29.8001 76.9474 27.61 74.0678 27.61ZM74.0678 35.9667C72.4871 35.9667 71.127 34.6697 71.127 32.81C71.127 30.938 72.4871 29.6533 74.0678 29.6533C75.6485 29.6533 77.0087 30.938 77.0087 32.81C77.0087 34.6697 75.6485 35.9667 74.0678 35.9667ZM60.491 29.2128V31.4151H65.7845C65.6252 32.6509 65.2086 33.5686 64.5837 34.1926C63.8117 34.9634 62.6109 35.8076 60.5033 35.8076C57.2439 35.8076 54.6952 33.1893 54.6952 29.9347C54.6952 26.6801 57.2439 24.0617 60.5033 24.0617C62.2555 24.0617 63.5421 24.7469 64.4857 25.6401L66.0418 24.0862C64.7185 22.826 62.9662 21.8594 60.491 21.8594C56.0308 21.8594 52.2812 25.481 52.2812 29.9469C52.2812 34.4006 56.0308 38.0344 60.491 38.0344C62.905 38.0344 64.7185 37.2514 66.1399 35.7709C67.598 34.3149 68.0514 32.2594 68.0514 30.6076C68.0514 30.0937 68.0146 29.6166 67.9289 29.225H60.491V29.2128ZM116.011 30.9257C115.582 29.7634 114.259 27.61 111.551 27.61C108.868 27.61 106.637 29.7144 106.637 32.81C106.637 35.722 108.843 38.01 111.808 38.01C114.198 38.01 115.582 36.554 116.146 35.7097L114.369 34.5229C113.781 35.3916 112.972 35.9667 111.808 35.9667C110.644 35.9667 109.811 35.4283 109.284 34.3883L116.256 31.513L116.011 30.9257ZM108.904 32.6631C108.843 30.6566 110.461 29.6288 111.625 29.6288C112.531 29.6288 113.303 30.0815 113.561 30.73L108.904 32.6631ZM103.243 37.7041H105.535V22.41H103.243V37.7041ZM99.4937 28.7723H99.4079C98.8933 28.1606 97.913 27.61 96.6631 27.61C94.0532 27.61 91.6637 29.898 91.6637 32.8344C91.6637 35.7464 94.0532 38.0222 96.6631 38.0222C97.9007 38.0222 98.8933 37.4716 99.4079 36.8354H99.4814V37.5817C99.4814 39.5761 98.4154 40.6406 96.6999 40.6406C95.303 40.6406 94.433 39.6373 94.0777 38.793L92.0804 39.625C92.6563 41.0076 94.1757 42.6961 96.6999 42.6961C99.3834 42.6961 101.65 41.1177 101.65 37.2759V27.9281H99.4814V28.7723H99.4937ZM96.8592 35.9667C95.2785 35.9667 93.9551 34.6453 93.9551 32.8344C93.9551 30.9991 95.2785 29.6655 96.8592 29.6655C98.4154 29.6655 99.6407 31.0114 99.6407 32.8344C99.653 34.6453 98.4276 35.9667 96.8592 35.9667ZM126.745 22.41H121.268V37.7041H123.559V31.9046H126.758C129.294 31.9046 131.781 30.0693 131.781 27.1573C131.781 24.2453 129.27 22.41 126.745 22.41ZM126.794 29.7756H123.547V24.5267H126.794C128.51 24.5267 129.478 25.946 129.478 27.145C129.478 28.3441 128.51 29.7756 126.794 29.7756ZM140.935 27.5855C139.281 27.5855 137.565 28.3196 136.854 29.9224L138.888 30.7667C139.317 29.9224 140.126 29.641 140.972 29.641C142.148 29.641 143.361 30.3507 143.373 31.6109V31.77C142.957 31.5375 142.074 31.1827 140.984 31.1827C138.79 31.1827 136.573 32.3817 136.573 34.6208C136.573 36.6641 138.362 37.9855 140.371 37.9855C141.903 37.9855 142.761 37.3003 143.287 36.4928H143.361V37.6796H145.567V31.8189C145.579 29.1027 143.545 27.5855 140.935 27.5855ZM140.653 35.9667C139.905 35.9667 138.864 35.5874 138.864 34.6697C138.864 33.4951 140.163 33.0424 141.29 33.0424C142.295 33.0424 142.773 33.2627 143.373 33.5563C143.202 34.9634 141.976 35.9667 140.653 35.9667ZM153.617 27.9158L150.995 34.5474H150.921L148.201 27.9158H145.738L149.818 37.1902L147.49 42.3413H149.88L156.166 27.9158H153.617ZM133.031 37.7041H135.323V22.41H133.031V37.7041Z" fill="white"/>
<path d="M14.7902 10.2263C14.4349 10.6056 14.2266 11.1929 14.2266 11.9392V39.0037C14.2266 39.7623 14.4349 40.3496 14.7902 40.7167L14.876 40.8023L30.058 25.655V25.4715V25.288L14.876 10.1406L14.7902 10.2263Z" fill="url(#paint0_linear_774_1695)"/>
<path d="M35.1232 30.7078L30.0625 25.6546V25.4711V25.2876L35.1232 20.2344L35.2334 20.2956L41.2254 23.697C42.9408 24.6635 42.9408 26.2541 41.2254 27.233L35.2334 30.6344L35.1232 30.7078Z" fill="url(#paint1_linear_774_1695)"/>
<path d="M35.2356 30.632L30.0646 25.4688L14.7969 40.7139C15.3605 41.3135 16.2918 41.3869 17.3456 40.7873L35.2356 30.632Z" fill="url(#paint2_linear_774_1695)"/>
<path d="M35.2322 20.3082L17.33 10.1529C16.2762 9.55337 15.3449 9.62679 14.7812 10.2263L30.0613 25.4715L35.2322 20.3082Z" fill="url(#paint3_linear_774_1695)"/>
<path opacity="0.2" d="M35.1253 30.5234L17.3333 40.6176C16.3408 41.1804 15.4463 41.1437 14.8826 40.6298L14.7969 40.7154L14.8826 40.8011C15.4586 41.315 16.3408 41.3517 17.3333 40.7889L35.2356 30.6336L35.1253 30.5234Z" fill="white"/>
<path opacity="0.12" d="M14.7902 40.545C14.4349 40.1657 14.2266 39.5784 14.2266 38.832V39.0156C14.2266 39.7741 14.4349 40.3614 14.7902 40.7285L14.876 40.6429L14.7902 40.545Z" fill="white"/>
<path opacity="0.12" d="M41.2238 27.0593L35.1094 30.5219L35.2197 30.632L41.2116 27.2306C42.0693 26.7412 42.4982 26.105 42.4982 25.4688C42.4369 26.0438 42.0081 26.6189 41.2238 27.0593Z" fill="white"/>
<path opacity="0.25" d="M17.3311 10.3221L41.2253 23.8788C41.9973 24.3192 42.4384 24.8821 42.5119 25.4694C42.5119 24.8331 42.083 24.1847 41.2253 23.7075L17.3311 10.1508C15.6156 9.18419 14.2188 9.99172 14.2188 11.9494V12.1329C14.2188 10.163 15.6279 9.35548 17.3311 10.3221Z" fill="white"/>
<defs>
<linearGradient id="paint0_linear_774_1695" x1="28.7097" y1="11.6574" x2="8.176" y2="32.2216" gradientUnits="userSpaceOnUse">
<stop stop-color="#00A0FF"/>
<stop offset="0.00657445" stop-color="#00A1FF"/>
<stop offset="0.2601" stop-color="#00BEFF"/>
<stop offset="0.5122" stop-color="#00D2FF"/>
<stop offset="0.7604" stop-color="#00DFFF"/>
<stop offset="1" stop-color="#00E3FF"/>
</linearGradient>
<linearGradient id="paint1_linear_774_1695" x1="43.4609" y1="25.4728" x2="13.8114" y2="25.4728" gradientUnits="userSpaceOnUse">
<stop stop-color="#FFE000"/>
<stop offset="0.4087" stop-color="#FFBD00"/>
<stop offset="0.7754" stop-color="#FFA500"/>
<stop offset="1" stop-color="#FF9C00"/>
</linearGradient>
<linearGradient id="paint2_linear_774_1695" x1="32.4259" y1="28.2781" x2="4.58045" y2="56.1648" gradientUnits="userSpaceOnUse">
<stop stop-color="#FF3A44"/>
<stop offset="1" stop-color="#C31162"/>
</linearGradient>
<linearGradient id="paint3_linear_774_1695" x1="10.9426" y1="1.21649" x2="23.3768" y2="13.669" gradientUnits="userSpaceOnUse">
<stop stop-color="#32A071"/>
<stop offset="0.0685" stop-color="#2DA771"/>
<stop offset="0.4762" stop-color="#15CF74"/>
<stop offset="0.8009" stop-color="#06E775"/>
<stop offset="1" stop-color="#00F076"/>
</linearGradient>
</defs>
</svg>
