<svg width="40" height="40" viewBox="0 0 40 40" fill="none" xmlns="http://www.w3.org/2000/svg">
<path fill-rule="evenodd" clip-rule="evenodd" d="M22.6211 2.27752C31.2672 3.54711 37.9204 11.0093 37.9204 20.0037C37.9204 29.8871 29.8871 37.9204 20.0037 37.9204C11.0093 37.9204 3.54711 31.2672 2.27752 22.6211C2.09519 21.6084 2 20.5653 2 19.5C2 9.83502 9.83502 2 19.5 2C20.5653 2 21.6084 2.09519 22.6211 2.27752Z" fill="#272A2E"/>
<path fill-rule="evenodd" clip-rule="evenodd" d="M15.2966 26.4307L15.2965 26.4306L15.2918 26.4357C15.0603 26.6837 14.7234 26.8049 14.3954 26.8049C14.0719 26.8049 13.7499 26.6863 13.4943 26.4307C13.0019 25.9383 13.0019 25.1207 13.4943 24.6284L24.6284 13.4943C25.1207 13.0019 25.9384 13.0019 26.4307 13.4943C26.9231 13.9866 26.9231 14.8042 26.4307 15.2966L15.2966 26.4307Z" fill="#B4B4B8"/>
<path fill-rule="evenodd" clip-rule="evenodd" d="M25.5295 26.8049C25.206 26.8049 24.884 26.6863 24.6284 26.4307L13.4943 15.2966C13.0019 14.8042 13.0019 13.9866 13.4943 13.4943C13.9866 13.0019 14.8042 13.0019 15.2966 13.4943L26.4307 24.6284C26.9231 25.1207 26.9231 25.9383 26.4307 26.4307C26.1751 26.6863 25.8531 26.8049 25.5295 26.8049Z" fill="#B4B4B8"/>
</svg>
