<svg width="600" height="80" viewBox="0 0 600 80" fill="none" xmlns="http://www.w3.org/2000/svg">
<path d="M37.605 61H54.18L37.35 40.175C46.02 37.455 50.865 30.74 50.865 21.645C50.865 9.66 42.45 1.5 29.445 1.5H0.46V61H14.4V41.365H22.475L37.605 61ZM37.095 21.815C37.095 27.17 33.78 30.145 27.83 30.145H14.315V13.4H27.83C33.78 13.4 37.095 16.46 37.095 21.815ZM78.7616 18.075C65.2466 18.075 56.1516 27 56.1516 40.09C56.1516 53.605 65.2466 62.02 79.9516 62.02C87.3466 62.02 94.0616 59.555 98.8216 55.135L91.8516 47.655C88.9616 49.95 84.7116 51.225 80.6316 51.225C74.5116 51.225 70.5166 48.25 69.7516 44H100.607C103.072 28.53 94.4016 18.075 78.7616 18.075ZM79.1866 28.615C84.6266 28.615 88.0266 31.505 88.3666 36.35H69.8366C70.3466 31.42 73.8316 28.615 79.1866 28.615ZM140.889 19.01L140.039 23.94C136.639 20.2 131.794 18.16 126.099 18.16C114.284 18.16 106.039 27.085 106.039 40.005C106.039 52.925 114.284 61.85 126.099 61.85C131.794 61.85 136.554 59.81 140.039 55.985L140.889 61H152.449V19.01H140.889ZM129.244 50.63C123.379 50.63 119.299 46.295 119.299 40.005C119.299 33.715 123.379 29.38 129.244 29.38C135.194 29.38 139.274 33.715 139.274 40.005C139.274 46.295 135.194 50.63 129.244 50.63ZM193.142 1.5V23.005C189.742 19.86 185.322 18.16 180.137 18.16C168.322 18.16 160.077 27.085 160.077 40.005C160.077 52.925 168.322 61.85 180.137 61.85C185.832 61.85 190.592 59.81 194.077 55.985L194.927 61H206.487V1.5H193.142ZM183.282 50.63C177.417 50.63 173.337 46.295 173.337 40.005C173.337 33.715 177.417 29.38 183.282 29.38C189.232 29.38 193.312 33.715 193.312 40.005C193.312 46.295 189.232 50.63 183.282 50.63ZM245.818 19.01L240.463 32.27L235.533 45.955L230.943 32.27L226.098 19.01H211.733L228.053 60.405L219.893 79.19H234.088L260.268 19.01H245.818ZM313.154 1.5H284.679V61H298.619V44.17H313.154C327.094 44.17 335.934 35.925 335.934 22.835C335.934 9.745 327.094 1.5 313.154 1.5ZM312.474 32.015H298.534V13.825H312.474C318.339 13.825 322.079 17.395 322.079 22.92C322.079 28.445 318.339 32.015 312.474 32.015ZM342.584 61H355.929V1.5H342.584V61ZM398.463 19.01L397.613 23.94C394.213 20.2 389.368 18.16 383.673 18.16C371.858 18.16 363.613 27.085 363.613 40.005C363.613 52.925 371.858 61.85 383.673 61.85C389.368 61.85 394.128 59.81 397.613 55.985L398.463 61H410.023V19.01H398.463ZM386.818 50.63C380.953 50.63 376.873 46.295 376.873 40.005C376.873 33.715 380.953 29.38 386.818 29.38C392.768 29.38 396.848 33.715 396.848 40.005C396.848 46.295 392.768 50.63 386.818 50.63ZM449.271 19.01L443.916 32.27L438.986 45.955L434.396 32.27L429.551 19.01H415.186L431.506 60.405L423.346 79.19H437.541L463.721 19.01H449.271ZM487.575 18.075C474.06 18.075 464.965 27 464.965 40.09C464.965 53.605 474.06 62.02 488.765 62.02C496.16 62.02 502.875 59.555 507.635 55.135L500.665 47.655C497.775 49.95 493.525 51.225 489.445 51.225C483.325 51.225 479.33 48.25 478.565 44H509.42C511.885 28.53 503.215 18.075 487.575 18.075ZM488 28.615C493.44 28.615 496.84 31.505 497.18 36.35H478.65C479.16 31.42 482.645 28.615 488 28.615ZM541.118 18.075C536.783 18.075 532.788 19.86 529.898 24.28L528.878 19.01H517.233V61H530.578V40.6C530.578 33.46 534.233 29.89 539.758 29.89C542.053 29.89 543.923 30.485 546.303 32.015L551.913 22.24C549.023 19.435 544.858 18.075 541.118 18.075ZM568.567 42.64H582.167V40.515C582.167 37.03 583.867 34.99 588.032 33.46C595.767 30.57 599.507 25.98 599.507 19.18C599.507 7.96 590.667 0.904999 576.472 0.904999C562.787 0.904999 553.522 8.98 554.202 20.2H567.887C567.887 15.61 571.372 12.805 576.812 12.805C582.167 12.805 585.397 15.185 585.397 19.01C585.397 21.985 583.017 24.11 578.002 25.81C571.457 27.85 568.567 32.015 568.567 39.41V42.64ZM575.367 61.85C579.787 61.85 583.017 58.79 583.017 54.625C583.017 50.375 579.872 47.4 575.367 47.4C570.947 47.4 567.717 50.375 567.717 54.625C567.717 58.79 570.947 61.85 575.367 61.85Z" fill="#121212"/>
<path d="M37.605 61L36.5753 61.7935L36.9656 62.3H37.605V61ZM54.18 61V62.3H56.9021L55.1911 60.1829L54.18 61ZM37.35 40.175L36.9609 38.9346L35.1382 39.5064L36.3389 40.9921L37.35 40.175ZM0.460001 1.5V0.199997H-0.84V1.5H0.460001ZM0.460001 61H-0.84V62.3H0.460001V61ZM14.4 61V62.3H15.7V61H14.4ZM14.4 41.365V40.065H13.1V41.365H14.4ZM22.475 41.365L23.5047 40.5715L23.1144 40.065H22.475V41.365ZM14.315 30.145H13.015V31.445H14.315V30.145ZM14.315 13.4V12.1H13.015V13.4H14.315ZM37.605 62.3H54.18V59.7H37.605V62.3ZM55.1911 60.1829L38.3611 39.3579L36.3389 40.9921L53.1689 61.8171L55.1911 60.1829ZM37.7391 41.4154C42.3057 39.9827 45.9311 37.4739 48.4101 34.0652C50.8884 30.6576 52.165 26.428 52.165 21.645H49.565C49.565 25.957 48.4191 29.6324 46.3074 32.536C44.1964 35.4386 41.0643 37.6473 36.9609 38.9346L37.7391 41.4154ZM52.165 21.645C52.165 15.3367 49.943 9.9454 45.9266 6.13502C41.9158 2.32989 36.2211 0.199997 29.445 0.199997V2.8C35.6739 2.8 40.6892 4.7501 44.1371 8.02122C47.5795 11.2871 49.565 15.9683 49.565 21.645H52.165ZM29.445 0.199997H0.460001V2.8H29.445V0.199997ZM-0.84 1.5V61H1.76V1.5H-0.84ZM0.460001 62.3H14.4V59.7H0.460001V62.3ZM15.7 61V41.365H13.1V61H15.7ZM14.4 42.665H22.475V40.065H14.4V42.665ZM21.4453 42.1585L36.5753 61.7935L38.6348 60.2065L23.5047 40.5715L21.4453 42.1585ZM35.795 21.815C35.795 24.2163 35.0609 25.9104 33.8248 27.0212C32.5672 28.1513 30.6042 28.845 27.83 28.845V31.445C31.0058 31.445 33.6753 30.6512 35.5627 28.9551C37.4716 27.2396 38.395 24.7687 38.395 21.815H35.795ZM27.83 28.845H14.315V31.445H27.83V28.845ZM15.615 30.145V13.4H13.015V30.145H15.615ZM14.315 14.7H27.83V12.1H14.315V14.7ZM27.83 14.7C30.5954 14.7 32.5576 15.4104 33.8177 16.5598C35.06 17.693 35.795 19.4128 35.795 21.815H38.395C38.395 18.8622 37.4725 16.3745 35.5698 14.6389C33.6849 12.9196 31.0146 12.1 27.83 12.1V14.7ZM98.8216 55.135L99.7062 56.0876L100.66 55.2015L99.7727 54.2488L98.8216 55.135ZM91.8516 47.655L92.8027 46.7688L91.9838 45.89L91.0432 46.637L91.8516 47.655ZM69.7516 44V42.7H68.1967L68.4722 44.2303L69.7516 44ZM100.607 44V45.3H101.716L101.89 44.2046L100.607 44ZM88.3666 36.35V37.65H89.761L89.6634 36.259L88.3666 36.35ZM69.8366 36.35L68.5435 36.2162L68.3952 37.65H69.8366V36.35ZM78.7616 16.775C71.7131 16.775 65.719 19.1072 61.4805 23.2434C57.2396 27.3819 54.8516 33.2344 54.8516 40.09H57.4516C57.4516 33.8556 59.6111 28.7006 63.2964 25.1041C66.9842 21.5053 72.2951 19.375 78.7616 19.375V16.775ZM54.8516 40.09C54.8516 47.1513 57.2365 53.002 61.6558 57.0787C66.0629 61.1441 72.3561 63.32 79.9516 63.32V60.72C72.8421 60.72 67.2353 58.6884 63.4187 55.1676C59.6142 51.658 57.4516 46.5437 57.4516 40.09H54.8516ZM79.9516 63.32C87.629 63.32 94.6742 60.7602 99.7062 56.0876L97.937 54.1824C93.449 58.3498 87.0642 60.72 79.9516 60.72V63.32ZM99.7727 54.2488L92.8027 46.7688L90.9005 48.5412L97.8705 56.0212L99.7727 54.2488ZM91.0432 46.637C88.427 48.7145 84.4796 49.925 80.6316 49.925V52.525C84.9436 52.525 89.4962 51.1855 92.66 48.673L91.0432 46.637ZM80.6316 49.925C74.9135 49.925 71.6487 47.201 71.031 43.7697L68.4722 44.2303C69.3845 49.299 74.1097 52.525 80.6316 52.525V49.925ZM69.7516 45.3H100.607V42.7H69.7516V45.3ZM101.89 44.2046C103.167 36.1936 101.582 29.3039 97.4695 24.4008C93.3538 19.494 86.8725 16.775 78.7616 16.775V19.375C86.2907 19.375 91.9644 21.8835 95.4775 26.0717C98.9936 30.2636 100.511 36.3364 99.3228 43.7954L101.89 44.2046ZM79.1866 29.915C81.6825 29.915 83.5688 30.5765 84.8503 31.6588C86.117 32.7287 86.9207 34.3165 87.0698 36.441L89.6634 36.259C89.4725 33.5385 88.4062 31.2588 86.5279 29.6725C84.6644 28.0985 82.1307 27.315 79.1866 27.315V29.915ZM88.3666 35.05H69.8366V37.65H88.3666V35.05ZM71.1297 36.4838C71.3547 34.309 72.2167 32.7084 73.5197 31.6384C74.8368 30.5568 76.7306 29.915 79.1866 29.915V27.315C76.2876 27.315 73.7614 28.0757 71.8697 29.6291C69.964 31.1941 68.8285 33.461 68.5435 36.2162L71.1297 36.4838ZM140.889 19.01V17.71H139.794L139.608 18.7891L140.889 19.01ZM140.039 23.94L139.077 24.8145L140.868 26.7843L141.32 24.1609L140.039 23.94ZM140.039 55.985L141.321 55.7678L140.875 53.1373L139.078 55.1095L140.039 55.985ZM140.889 61L139.608 61.2172L139.791 62.3H140.889V61ZM152.449 61V62.3H153.749V61H152.449ZM152.449 19.01H153.749V17.71H152.449V19.01ZM139.608 18.7891L138.758 23.7191L141.32 24.1609L142.17 19.2309L139.608 18.7891ZM141.001 23.0655C137.327 19.0244 132.118 16.86 126.099 16.86V19.46C131.471 19.46 135.951 21.3756 139.077 24.8145L141.001 23.0655ZM126.099 16.86C119.848 16.86 114.479 19.2293 110.682 23.3574C106.892 27.4774 104.739 33.268 104.739 40.005H107.339C107.339 33.822 109.309 28.6901 112.595 25.1176C115.874 21.5532 120.536 19.46 126.099 19.46V16.86ZM104.739 40.005C104.739 46.742 106.892 52.5326 110.682 56.6526C114.479 60.7807 119.848 63.15 126.099 63.15V60.55C120.536 60.55 115.874 58.4568 112.595 54.8924C109.309 51.3199 107.339 46.188 107.339 40.005H104.739ZM126.099 63.15C132.129 63.15 137.249 60.9779 141 56.8605L139.078 55.1095C135.86 58.6421 131.459 60.55 126.099 60.55V63.15ZM138.758 56.2022L139.608 61.2172L142.171 60.7828L141.321 55.7678L138.758 56.2022ZM140.889 62.3H152.449V59.7H140.889V62.3ZM153.749 61V19.01H151.149V61H153.749ZM152.449 17.71H140.889V20.31H152.449V17.71ZM129.244 49.33C126.646 49.33 124.512 48.3775 123.021 46.7871C121.524 45.1905 120.599 42.867 120.599 40.005H117.999C117.999 43.433 119.115 46.422 121.124 48.5654C123.139 50.715 125.977 51.93 129.244 51.93V49.33ZM120.599 40.005C120.599 37.143 121.524 34.8195 123.021 33.2229C124.512 31.6325 126.646 30.68 129.244 30.68V28.08C125.977 28.08 123.139 29.295 121.124 31.4446C119.115 33.588 117.999 36.577 117.999 40.005H120.599ZM129.244 30.68C131.89 30.68 134.046 31.6362 135.545 33.2257C137.05 34.8214 137.974 37.1432 137.974 40.005H140.574C140.574 36.5768 139.459 33.5861 137.436 31.4418C135.408 29.2913 132.549 28.08 129.244 28.08V30.68ZM137.974 40.005C137.974 42.8668 137.05 45.1886 135.545 46.7843C134.046 48.3738 131.89 49.33 129.244 49.33V51.93C132.549 51.93 135.408 50.7187 137.436 48.5682C139.459 46.4239 140.574 43.4332 140.574 40.005H137.974ZM193.142 1.5V0.199997H191.842V1.5H193.142ZM193.142 23.005L192.26 23.9593L194.442 25.9784V23.005H193.142ZM194.077 55.985L195.359 55.7678L194.913 53.1373L193.116 55.1095L194.077 55.985ZM194.927 61L193.646 61.2172L193.829 62.3H194.927V61ZM206.487 61V62.3H207.787V61H206.487ZM206.487 1.5H207.787V0.199997H206.487V1.5ZM191.842 1.5V23.005H194.442V1.5H191.842ZM194.025 22.0507C190.366 18.6661 185.623 16.86 180.137 16.86V19.46C185.021 19.46 189.119 21.0538 192.26 23.9593L194.025 22.0507ZM180.137 16.86C173.886 16.86 168.517 19.2293 164.72 23.3574C160.93 27.4774 158.777 33.268 158.777 40.005H161.377C161.377 33.822 163.347 28.6901 166.634 25.1176C169.912 21.5532 174.574 19.46 180.137 19.46V16.86ZM158.777 40.005C158.777 46.742 160.93 52.5326 164.72 56.6526C168.517 60.7807 173.886 63.15 180.137 63.15V60.55C174.574 60.55 169.912 58.4568 166.634 54.8924C163.347 51.3199 161.377 46.188 161.377 40.005H158.777ZM180.137 63.15C186.167 63.15 191.287 60.9779 195.038 56.8605L193.116 55.1095C189.898 58.6421 185.497 60.55 180.137 60.55V63.15ZM192.796 56.2022L193.646 61.2172L196.209 60.7828L195.359 55.7678L192.796 56.2022ZM194.927 62.3H206.487V59.7H194.927V62.3ZM207.787 61V1.5H205.187V61H207.787ZM206.487 0.199997H193.142V2.8H206.487V0.199997ZM183.282 49.33C180.685 49.33 178.55 48.3775 177.059 46.7871C175.562 45.1905 174.637 42.867 174.637 40.005H172.037C172.037 43.433 173.153 46.422 175.162 48.5654C177.177 50.715 180.015 51.93 183.282 51.93V49.33ZM174.637 40.005C174.637 37.143 175.562 34.8195 177.059 33.2229C178.55 31.6325 180.685 30.68 183.282 30.68V28.08C180.015 28.08 177.177 29.295 175.162 31.4446C173.153 33.588 172.037 36.577 172.037 40.005H174.637ZM183.282 30.68C185.928 30.68 188.084 31.6362 189.583 33.2257C191.088 34.8214 192.012 37.1432 192.012 40.005H194.612C194.612 36.5768 193.497 33.5861 191.474 31.4418C189.446 29.2913 186.587 28.08 183.282 28.08V30.68ZM192.012 40.005C192.012 42.8668 191.088 45.1886 189.583 46.7843C188.084 48.3738 185.928 49.33 183.282 49.33V51.93C186.587 51.93 189.446 50.7187 191.474 48.5682C193.497 46.4239 194.612 43.4332 194.612 40.005H192.012ZM245.818 19.01V17.71H244.941L244.613 18.5232L245.818 19.01ZM240.463 32.27L239.258 31.7832L239.249 31.8061L239.24 31.8294L240.463 32.27ZM235.533 45.955L234.301 46.3684L235.49 49.9124L236.757 46.3956L235.533 45.955ZM230.943 32.27L232.176 31.8566L232.17 31.8401L232.165 31.8238L230.943 32.27ZM226.098 19.01L227.32 18.5638L227.008 17.71H226.098V19.01ZM211.733 19.01V17.71H209.824L210.524 19.4868L211.733 19.01ZM228.053 60.405L229.246 60.923L229.46 60.4291L229.263 59.9282L228.053 60.405ZM219.893 79.19L218.701 78.6721L217.911 80.49H219.893V79.19ZM234.088 79.19V80.49H234.941L235.281 79.7086L234.088 79.19ZM260.268 19.01L261.461 19.5286L262.252 17.71H260.268V19.01ZM244.613 18.5232L239.258 31.7832L241.669 32.7568L247.024 19.4968L244.613 18.5232ZM239.24 31.8294L234.31 45.5144L236.757 46.3956L241.687 32.7106L239.24 31.8294ZM236.766 45.5416L232.176 31.8566L229.711 32.6834L234.301 46.3684L236.766 45.5416ZM232.165 31.8238L227.32 18.5638L224.877 19.4562L229.722 32.7161L232.165 31.8238ZM226.098 17.71H211.733V20.31H226.098V17.71ZM210.524 19.4868L226.844 60.8818L229.263 59.9282L212.943 18.5332L210.524 19.4868ZM226.861 59.8871L218.701 78.6721L221.086 79.708L229.246 60.923L226.861 59.8871ZM219.893 80.49H234.088V77.89H219.893V80.49ZM235.281 79.7086L261.461 19.5286L259.076 18.4914L232.896 78.6714L235.281 79.7086ZM260.268 17.71H245.818V20.31H260.268V17.71ZM284.679 1.5V0.199997H283.379V1.5H284.679ZM284.679 61H283.379V62.3H284.679V61ZM298.619 61V62.3H299.919V61H298.619ZM298.619 44.17V42.87H297.319V44.17H298.619ZM298.534 32.015H297.234V33.315H298.534V32.015ZM298.534 13.825V12.525H297.234V13.825H298.534ZM313.154 0.199997H284.679V2.8H313.154V0.199997ZM283.379 1.5V61H285.979V1.5H283.379ZM284.679 62.3H298.619V59.7H284.679V62.3ZM299.919 61V44.17H297.319V61H299.919ZM298.619 45.47H313.154V42.87H298.619V45.47ZM313.154 45.47C320.377 45.47 326.416 43.3305 330.659 39.3606C334.913 35.3817 337.234 29.6842 337.234 22.835H334.634C334.634 29.0758 332.535 34.0458 328.883 37.4619C325.222 40.887 319.87 42.87 313.154 42.87V45.47ZM337.234 22.835C337.234 15.9858 334.913 10.2883 330.659 6.30939C326.416 2.33947 320.377 0.199997 313.154 0.199997V2.8C319.87 2.8 325.222 4.78302 328.883 8.2081C332.535 11.6242 334.634 16.5942 334.634 22.835H337.234ZM312.474 30.715H298.534V33.315H312.474V30.715ZM299.834 32.015V13.825H297.234V32.015H299.834ZM298.534 15.125H312.474V12.525H298.534V15.125ZM312.474 15.125C315.143 15.125 317.2 15.9335 318.581 17.2436C319.954 18.5471 320.779 20.4613 320.779 22.92H323.379C323.379 19.8537 322.333 17.2204 320.371 15.3577C318.415 13.5015 315.67 12.525 312.474 12.525V15.125ZM320.779 22.92C320.779 25.3787 319.954 27.2929 318.581 28.5964C317.2 29.9065 315.143 30.715 312.474 30.715V33.315C315.67 33.315 318.415 32.3385 320.371 30.4823C322.333 28.6196 323.379 25.9863 323.379 22.92H320.779ZM342.584 61H341.284V62.3H342.584V61ZM355.929 61V62.3H357.229V61H355.929ZM355.929 1.5H357.229V0.199997H355.929V1.5ZM342.584 1.5V0.199997H341.284V1.5H342.584ZM342.584 62.3H355.929V59.7H342.584V62.3ZM357.229 61V1.5H354.629V61H357.229ZM355.929 0.199997H342.584V2.8H355.929V0.199997ZM341.284 1.5V61H343.884V1.5H341.284ZM398.463 19.01V17.71H397.367L397.181 18.7891L398.463 19.01ZM397.613 23.94L396.651 24.8145L398.441 26.7843L398.894 24.1609L397.613 23.94ZM397.613 55.985L398.894 55.7678L398.448 53.1373L396.652 55.1095L397.613 55.985ZM398.463 61L397.181 61.2172L397.364 62.3H398.463V61ZM410.023 61V62.3H411.323V61H410.023ZM410.023 19.01H411.323V17.71H410.023V19.01ZM397.181 18.7891L396.331 23.7191L398.894 24.1609L399.744 19.2309L397.181 18.7891ZM398.574 23.0655C394.901 19.0244 389.691 16.86 383.673 16.86V19.46C389.044 19.46 393.524 21.3756 396.651 24.8145L398.574 23.0655ZM383.673 16.86C377.421 16.86 372.052 19.2293 368.255 23.3574C364.465 27.4774 362.313 33.268 362.313 40.005H364.913C364.913 33.822 366.882 28.6901 370.169 25.1176C373.448 21.5532 378.109 19.46 383.673 19.46V16.86ZM362.313 40.005C362.313 46.742 364.465 52.5326 368.255 56.6526C372.052 60.7807 377.421 63.15 383.673 63.15V60.55C378.109 60.55 373.448 58.4568 370.169 54.8924C366.882 51.3199 364.913 46.188 364.913 40.005H362.313ZM383.673 63.15C389.702 63.15 394.822 60.9779 398.573 56.8605L396.652 55.1095C393.433 58.6421 389.033 60.55 383.673 60.55V63.15ZM396.331 56.2022L397.181 61.2172L399.744 60.7828L398.894 55.7678L396.331 56.2022ZM398.463 62.3H410.023V59.7H398.463V62.3ZM411.323 61V19.01H408.723V61H411.323ZM410.023 17.71H398.463V20.31H410.023V17.71ZM386.818 49.33C384.22 49.33 382.085 48.3775 380.594 46.7871C379.097 45.1905 378.173 42.867 378.173 40.005H375.573C375.573 43.433 376.688 46.422 378.697 48.5654C380.713 50.715 383.55 51.93 386.818 51.93V49.33ZM378.173 40.005C378.173 37.143 379.097 34.8195 380.594 33.2229C382.085 31.6325 384.22 30.68 386.818 30.68V28.08C383.55 28.08 380.713 29.295 378.697 31.4446C376.688 33.588 375.573 36.577 375.573 40.005H378.173ZM386.818 30.68C389.463 30.68 391.619 31.6362 393.118 33.2257C394.623 34.8214 395.548 37.1432 395.548 40.005H398.148C398.148 36.5768 397.032 33.5861 395.009 31.4418C392.981 29.2913 390.122 28.08 386.818 28.08V30.68ZM395.548 40.005C395.548 42.8668 394.623 45.1886 393.118 46.7843C391.619 48.3738 389.463 49.33 386.818 49.33V51.93C390.122 51.93 392.981 50.7187 395.009 48.5682C397.032 46.4239 398.148 43.4332 398.148 40.005H395.548ZM449.271 19.01V17.71H448.394L448.065 18.5232L449.271 19.01ZM443.916 32.27L442.71 31.7832L442.701 31.8061L442.693 31.8294L443.916 32.27ZM438.986 45.955L437.753 46.3684L438.942 49.9124L440.209 46.3956L438.986 45.955ZM434.396 32.27L435.628 31.8566L435.623 31.8401L435.617 31.8238L434.396 32.27ZM429.551 19.01L430.772 18.5638L430.46 17.71H429.551V19.01ZM415.186 19.01V17.71H413.276L413.976 19.4868L415.186 19.01ZM431.506 60.405L432.698 60.923L432.913 60.4291L432.715 59.9282L431.506 60.405ZM423.346 79.19L422.153 78.6721L421.364 80.49H423.346V79.19ZM437.541 79.19V80.49H438.393L438.733 79.7086L437.541 79.19ZM463.721 19.01L464.913 19.5286L465.704 17.71H463.721V19.01ZM448.065 18.5232L442.71 31.7832L445.121 32.7568L450.476 19.4968L448.065 18.5232ZM442.693 31.8294L437.763 45.5144L440.209 46.3956L445.139 32.7106L442.693 31.8294ZM440.218 45.5416L435.628 31.8566L433.163 32.6834L437.753 46.3684L440.218 45.5416ZM435.617 31.8238L430.772 18.5638L428.33 19.4562L433.175 32.7161L435.617 31.8238ZM429.551 17.71H415.186V20.31H429.551V17.71ZM413.976 19.4868L430.296 60.8818L432.715 59.9282L416.395 18.5332L413.976 19.4868ZM430.313 59.8871L422.153 78.6721L424.538 79.708L432.698 60.923L430.313 59.8871ZM423.346 80.49H437.541V77.89H423.346V80.49ZM438.733 79.7086L464.913 19.5286L462.529 18.4914L436.349 78.6714L438.733 79.7086ZM463.721 17.71H449.271V20.31H463.721V17.71ZM507.635 55.135L508.52 56.0876L509.474 55.2015L508.586 54.2488L507.635 55.135ZM500.665 47.655L501.616 46.7688L500.797 45.89L499.857 46.637L500.665 47.655ZM478.565 44V42.7H477.01L477.286 44.2303L478.565 44ZM509.42 44V45.3H510.529L510.704 44.2046L509.42 44ZM497.18 36.35V37.65H498.574L498.477 36.259L497.18 36.35ZM478.65 36.35L477.357 36.2162L477.209 37.65H478.65V36.35ZM487.575 16.775C480.527 16.775 474.532 19.1072 470.294 23.2434C466.053 27.3819 463.665 33.2344 463.665 40.09H466.265C466.265 33.8556 468.425 28.7006 472.11 25.1041C475.798 21.5053 481.109 19.375 487.575 19.375V16.775ZM463.665 40.09C463.665 47.1513 466.05 53.002 470.469 57.0787C474.876 61.1441 481.17 63.32 488.765 63.32V60.72C481.656 60.72 476.049 58.6884 472.232 55.1676C468.428 51.658 466.265 46.5437 466.265 40.09H463.665ZM488.765 63.32C496.443 63.32 503.488 60.7602 508.52 56.0876L506.75 54.1824C502.262 58.3498 495.878 60.72 488.765 60.72V63.32ZM508.586 54.2488L501.616 46.7688L499.714 48.5412L506.684 56.0212L508.586 54.2488ZM499.857 46.637C497.241 48.7145 493.293 49.925 489.445 49.925V52.525C493.757 52.525 498.31 51.1855 501.474 48.673L499.857 46.637ZM489.445 49.925C483.727 49.925 480.462 47.201 479.845 43.7697L477.286 44.2303C478.198 49.299 482.923 52.525 489.445 52.525V49.925ZM478.565 45.3H509.42V42.7H478.565V45.3ZM510.704 44.2046C511.98 36.1936 510.396 29.3039 506.283 24.4008C502.167 19.494 495.686 16.775 487.575 16.775V19.375C495.104 19.375 500.778 21.8835 504.291 26.0717C507.807 30.2636 509.325 36.3364 508.136 43.7954L510.704 44.2046ZM488 29.915C490.496 29.915 492.382 30.5765 493.664 31.6588C494.931 32.7287 495.734 34.3165 495.883 36.441L498.477 36.259C498.286 33.5385 497.22 31.2588 495.341 29.6725C493.478 28.0985 490.944 27.315 488 27.315V29.915ZM497.18 35.05H478.65V37.65H497.18V35.05ZM479.943 36.4838C480.168 34.309 481.03 32.7084 482.333 31.6384C483.65 30.5568 485.544 29.915 488 29.915V27.315C485.101 27.315 482.575 28.0757 480.683 29.6291C478.777 31.1941 477.642 33.461 477.357 36.2162L479.943 36.4838ZM529.898 24.28L528.621 24.527L529.231 27.6755L530.986 24.9914L529.898 24.28ZM528.878 19.01L530.154 18.763L529.95 17.71H528.878V19.01ZM517.233 19.01V17.71H515.933V19.01H517.233ZM517.233 61H515.933V62.3H517.233V61ZM530.578 61V62.3H531.878V61H530.578ZM546.303 32.015L545.6 33.1085L546.75 33.8478L547.43 32.6621L546.303 32.015ZM551.913 22.24L553.04 22.8871L553.543 22.0108L552.818 21.3071L551.913 22.24ZM541.118 16.775C536.369 16.775 531.953 18.7613 528.81 23.5686L530.986 24.9914C533.623 20.9587 537.197 19.375 541.118 19.375V16.775ZM531.174 24.033L530.154 18.763L527.601 19.257L528.621 24.527L531.174 24.033ZM528.878 17.71H517.233V20.31H528.878V17.71ZM515.933 19.01V61H518.533V19.01H515.933ZM517.233 62.3H530.578V59.7H517.233V62.3ZM531.878 61V40.6H529.278V61H531.878ZM531.878 40.6C531.878 37.2394 532.737 34.9113 534.063 33.4365C535.372 31.9798 537.285 31.19 539.758 31.19V28.59C536.706 28.59 534.029 29.5852 532.129 31.6985C530.246 33.7937 529.278 36.8206 529.278 40.6H531.878ZM539.758 31.19C541.757 31.19 543.387 31.6858 545.6 33.1085L547.006 30.9215C544.459 29.2842 542.349 28.59 539.758 28.59V31.19ZM547.43 32.6621L553.04 22.8871L550.785 21.5929L545.175 31.3679L547.43 32.6621ZM552.818 21.3071C549.645 18.2273 545.135 16.775 541.118 16.775V19.375C544.581 19.375 548.401 20.6427 551.007 23.1729L552.818 21.3071ZM568.567 42.64H567.267V43.94H568.567V42.64ZM582.167 42.64V43.94H583.467V42.64H582.167ZM588.032 33.46L588.481 34.6803L588.487 34.6778L588.032 33.46ZM554.202 20.2L552.905 20.2786L552.979 21.5H554.202V20.2ZM567.887 20.2V21.5H569.187V20.2H567.887ZM578.002 25.81L578.389 27.0511L578.405 27.0463L578.42 27.0412L578.002 25.81ZM568.567 43.94H582.167V41.34H568.567V43.94ZM583.467 42.64V40.515H580.867V42.64H583.467ZM583.467 40.515C583.467 39.0009 583.829 37.9371 584.538 37.0857C585.275 36.1988 586.5 35.4081 588.481 34.6803L587.584 32.2397C585.4 33.0419 583.692 34.0362 582.539 35.423C581.356 36.8454 580.867 38.5441 580.867 40.515H583.467ZM588.487 34.6778C592.492 33.1815 595.588 31.1997 597.683 28.6022C599.794 25.983 600.807 22.8368 600.807 19.18H598.207C598.207 22.3232 597.35 24.872 595.659 26.9703C593.949 29.0903 591.308 30.8485 587.577 32.2422L588.487 34.6778ZM600.807 19.18C600.807 13.195 598.433 8.2431 594.122 4.81723C589.844 1.41741 583.77 -0.395 576.472 -0.395V2.205C583.37 2.205 588.814 3.92009 592.504 6.85277C596.162 9.75939 598.207 13.945 598.207 19.18H600.807ZM576.472 -0.395C569.383 -0.395 563.322 1.6973 559.098 5.36321C554.854 9.04672 552.54 14.261 552.905 20.2786L555.5 20.1214C555.185 14.919 557.163 10.4858 560.803 7.32678C564.463 4.15019 569.877 2.205 576.472 2.205V-0.395ZM554.202 21.5H567.887V18.9H554.202V21.5ZM569.187 20.2C569.187 18.2629 569.908 16.7946 571.135 15.7855C572.392 14.7526 574.302 14.105 576.812 14.105V11.505C573.883 11.505 571.33 12.2599 569.484 13.7769C567.61 15.3179 566.587 17.5471 566.587 20.2H569.187ZM576.812 14.105C579.319 14.105 581.165 14.6647 582.349 15.5248C583.487 16.3518 584.097 17.5111 584.097 19.01H586.697C586.697 16.6839 585.693 14.7407 583.877 13.4214C582.107 12.1353 579.661 11.505 576.812 11.505V14.105ZM584.097 19.01C584.097 20.091 583.688 21.0295 582.704 21.9281C581.675 22.8681 580.021 23.7532 577.585 24.5788L578.42 27.0412C580.999 26.1668 583.043 25.1394 584.457 23.8482C585.917 22.5155 586.697 20.904 586.697 19.01H584.097ZM577.616 24.5689C574.152 25.6483 571.513 27.3377 569.762 29.8608C568.02 32.3719 567.267 35.5528 567.267 39.41H569.867C569.867 35.8722 570.56 33.2731 571.899 31.3429C573.229 29.4248 575.307 28.0117 578.389 27.0511L577.616 24.5689ZM567.267 39.41V42.64H569.867V39.41H567.267ZM575.367 63.15C580.436 63.15 584.317 59.5759 584.317 54.625H581.717C581.717 58.0041 579.139 60.55 575.367 60.55V63.15ZM584.317 54.625C584.317 52.1655 583.4 50.0098 581.775 48.4738C580.154 46.9429 577.909 46.1 575.367 46.1V48.7C577.331 48.7 578.911 49.3446 579.989 50.3637C581.062 51.3777 581.717 52.8345 581.717 54.625H584.317ZM575.367 46.1C570.31 46.1 566.417 49.5793 566.417 54.625H569.017C569.017 51.1707 571.585 48.7 575.367 48.7V46.1ZM566.417 54.625C566.417 59.5759 570.299 63.15 575.367 63.15V60.55C571.596 60.55 569.017 58.0041 569.017 54.625H566.417Z" fill="#E1E2E5"/>
</svg>
