<svg width="114" height="114" viewBox="0 0 114 114" fill="none" xmlns="http://www.w3.org/2000/svg">
<g filter="url(#filter0_d_774_1558)">
<circle cx="57" cy="54" r="49" fill="url(#paint0_linear_774_1558)"/>
</g>
<g clip-path="url(#clip0_774_1558)">
<path fill-rule="evenodd" clip-rule="evenodd" d="M23.6641 38.4844H26.8515H37.9026V41.7278H26.8515V43.9358H37.9026C37.9026 46.8462 37.9026 49.7594 37.9026 52.6698H23.6641V49.4263H34.7152V47.1792H23.6641C23.6641 44.28 23.6641 41.3836 23.6641 38.4844Z" fill="#E32222"/>
<path fill-rule="evenodd" clip-rule="evenodd" d="M55.3898 52.6742H52.1883V47.1276H44.3527V52.6742H41.1484V38.4888H44.3499V43.9402H52.1856C52.1856 39.9888 52.1856 36.0374 52.1856 32.0859H55.387C55.3898 38.9478 55.3898 45.8096 55.3898 52.6742Z" fill="#E32222"/>
<path fill-rule="evenodd" clip-rule="evenodd" d="M44.3387 66.697C54.9672 66.697 46.1633 66.697 55.3898 66.697V69.9404H41.1484V55.7578H44.3359V66.697H44.3387Z" fill="#E32222"/>
<path fill-rule="evenodd" clip-rule="evenodd" d="M72.8714 66.753H61.8203V59.0012H69.628V61.2624H63.4154V64.4498H72.8714V55.7578H58.6328V69.9404H72.8714V66.753Z" fill="#E32222"/>
<path fill-rule="evenodd" clip-rule="evenodd" d="M58.6328 38.4297H61.8482C61.8482 42.0957 61.8482 45.7616 61.8482 49.4248H69.6559C69.6559 45.7588 69.6559 42.0929 69.6559 38.4297H72.8714V52.6682H58.6328V38.4297Z" fill="#E32222"/>
<path fill-rule="evenodd" clip-rule="evenodd" d="M79.2734 59.0012H87.0811V61.2624H80.8685V64.4498H82.917L86.6165 69.9068H90.3245L86.6249 64.4498H90.3245V55.7578H76.0859C76.0859 62.6112 76.0859 69.4647 76.0859 76.3209H79.2762C79.2734 70.5449 79.2734 64.7744 79.2734 59.0012Z" fill="#E32222"/>
<path fill-rule="evenodd" clip-rule="evenodd" d="M81.5149 41.6479H76.0859V38.4297H90.3245V41.6479H84.7192V52.671H81.5149V41.6479Z" fill="#E32222"/>
<path fill-rule="evenodd" clip-rule="evenodd" d="M29.0959 59.1295H23.6641V55.9141H37.9026V59.1295H32.2973V69.9343H29.0959V59.1295Z" fill="#E32222"/>
<path d="M67.3684 38.4297H64.125V41.6731H67.3684V38.4297Z" fill="#E32222"/>
<path fill-rule="evenodd" clip-rule="evenodd" d="M61.8438 31.9453H69.6514L67.3707 36.8118H64.1273L61.8438 31.9453Z" fill="#E32222"/>
</g>
<defs>
<filter id="filter0_d_774_1558" x="0" y="0" width="114" height="114" filterUnits="userSpaceOnUse" color-interpolation-filters="sRGB">
<feFlood flood-opacity="0" result="BackgroundImageFix"/>
<feColorMatrix in="SourceAlpha" type="matrix" values="0 0 0 0 0 0 0 0 0 0 0 0 0 0 0 0 0 0 127 0" result="hardAlpha"/>
<feMorphology radius="2" operator="dilate" in="SourceAlpha" result="effect1_dropShadow_774_1558"/>
<feOffset dy="3"/>
<feGaussianBlur stdDeviation="3"/>
<feComposite in2="hardAlpha" operator="out"/>
<feColorMatrix type="matrix" values="0 0 0 0 0 0 0 0 0 0 0 0 0 0 0 0 0 0 0.15 0"/>
<feBlend mode="normal" in2="BackgroundImageFix" result="effect1_dropShadow_774_1558"/>
<feBlend mode="normal" in="SourceGraphic" in2="effect1_dropShadow_774_1558" result="shape"/>
</filter>
<linearGradient id="paint0_linear_774_1558" x1="65.1667" y1="5" x2="55.2247" y2="104.775" gradientUnits="userSpaceOnUse">
<stop stop-color="#383232"/>
<stop offset="1" stop-color="#221A1A"/>
</linearGradient>
<clipPath id="clip0_774_1558">
<rect width="66.6621" height="44.3695" fill="white" transform="translate(23.6641 31.9453)"/>
</clipPath>
</defs>
</svg>
